<svg version="1.2" xmlns="http://www.w3.org/2000/svg" viewBox="0 0 511 607" width="511" height="607">
	<title>logo (5)-svg</title>
	<style>
		.s0 { fill: #ff4940 } 
	</style>
	<g id="Layer">
		<g id="Layer">
			<path id="Layer" class="s0" d="m170.6 388.4c-7.3 29.2-15.1 58-22.4 87.3-0.3 4.5-1.6 9-3.8 12.9-2.3 4-5.3 7.5-9 10.1-3.7 2.7-8 4.5-12.5 5.4-4.4 0.8-9 0.6-13.5-0.5-9-0.2-17.9-2.4-25.9-6.5-8.1-4.1-15-10-20.5-17.2-5.4-7.3-9.1-15.6-10.8-24.5-1.7-8.9-1.3-18 1.1-26.7q8.8-40.1 19.8-79.6 10.9-39.5 24-78.4 13.1-38.9 28.3-77 15.2-38.1 32.4-75.3c8.7-19.6 25.2-22.8 43-24.7 64.8-5.9 73.9 6.4 49.3 65.4-14.6 35.7-27.9 71.7-42.5 109.2 64.4-16 121-92.3 118.3-155.4-0.3-8.4-2.3-16.6-5.8-24.2-3.6-7.7-8.6-14.5-14.8-20.2-6.2-5.6-13.5-10-21.4-12.8-7.9-2.8-16.3-4-24.7-3.5-68.5-1.9-116 34.2-152.5 88.2q-5.4 7.6-9.9 15.9-4.5 8.3-7.9 17.1-3.4 8.8-5.7 17.9-2.3 9.2-3.4 18.5c-3.2 27.9-23.8 37.9-48.4 23.8-6.2-3.9-11.7-8.7-16.2-14.3-4.6-5.7-8.2-12.1-10.7-18.9-2.4-6.8-3.8-14-3.9-21.3 0-7.2 1.1-14.5 3.4-21.4 2.1-7.7 4.9-15.2 8.2-22.5 3.3-7.3 7.1-14.3 11.4-21 4.4-6.8 9.2-13.2 14.4-19.2 5.3-6 11-11.6 17.1-16.8 89-78.1 190.9-97.7 301.4-56.6 94 35.1 113.2 132.5 43.4 208.8-7.9 8.3-16.3 16.1-25.1 23.3-8.9 7.2-18.2 13.9-27.9 19.9-9.7 6.1-19.7 11.5-30.1 16.3-10.4 4.7-21.1 8.8-32 12.2-3.1 0.4-6.1 1.5-8.8 3.2-2.7 1.7-5 4-6.7 6.6-1.7 2.7-2.9 5.6-3.4 8.8-0.4 3.1-0.2 6.3 0.6 9.3 6 53.5 16.5 105.2 50.3 149.5 7.8 11.7 17.7 21.9 29.2 30.1 11.5 8.2 24.4 14.2 38.1 17.7 13.6 3.5 27.8 4.5 41.8 2.9 14.1-1.6 27.7-5.8 40.2-12.3q2.8-1.4 5.6-2.7 2.8-1.2 5.7-2.4 2.8-1.2 5.7-2.4 2.9-1.1 5.8-2.1c1.8-0.7 3.7-1 5.7-1 1.9 0.1 3.8 0.5 5.6 1.2 1.8 0.7 3.4 1.7 4.8 3 1.5 1.3 2.7 2.8 3.5 4.5 1 1.7 1.7 3.5 2.1 5.3 0.3 1.9 0.4 3.8 0.2 5.7-0.3 1.9-0.8 3.7-1.7 5.4-0.8 1.7-1.9 3.3-3.3 4.6-42 52.6-140.2 84.1-201.4 63.6-62.1-21.1-92.2-70.9-111.9-129.4-8.7-27.1-12.4-55-21.9-82.8z"/>
		</g>
	</g>
</svg>