<?xml version="1.0" encoding="UTF-8"?>
<svg id="Capa_1" xmlns="http://www.w3.org/2000/svg" version="1.1" viewBox="0 0 511 607">
  <!-- Generator: Adobe Illustrator 29.6.1, SVG Export Plug-In . SVG Version: 2.1.1 Build 9)  -->
  <defs>
    <style>
      .st0 {
        fill: #ff4940;
      }

      .st1 {
        display: none;
      }

      .st2 {
        fill: #010202;
      }
    </style>
  </defs>
  <g id="Layer" class="st1">
    <g id="Layer1" data-name="Layer">
      <path id="Layer2" data-name="Layer" class="st0" d="M170.6,388.4c-7.3,29.2-15.1,58-22.4,87.3-.3,4.5-1.6,9-3.8,12.9-2.3,4-5.3,7.5-9,10.1-3.7,2.7-8,4.5-12.5,5.4-4.4.8-9,.6-13.5-.5-9-.2-17.9-2.4-25.9-6.5-8.1-4.1-15-10-20.5-17.2-5.4-7.3-9.1-15.6-10.8-24.5s-1.3-18,1.1-26.7c5.87-26.73,12.47-53.27,19.8-79.6,7.27-26.33,15.27-52.47,24-78.4,8.73-25.93,18.17-51.6,28.3-77,10.13-25.4,20.93-50.5,32.4-75.3,8.7-19.6,25.2-22.8,43-24.7,64.8-5.9,73.9,6.4,49.3,65.4-14.6,35.7-27.9,71.7-42.5,109.2,64.4-16,121-92.3,118.3-155.4-.3-8.4-2.3-16.6-5.8-24.2-3.6-7.7-8.6-14.5-14.8-20.2-6.2-5.6-13.5-10-21.4-12.8s-16.3-4-24.7-3.5c-68.5-1.9-116,34.2-152.5,88.2-3.6,5.07-6.9,10.37-9.9,15.9-3,5.53-5.63,11.23-7.9,17.1s-4.17,11.83-5.7,17.9c-1.53,6.13-2.67,12.3-3.4,18.5-3.2,27.9-23.8,37.9-48.4,23.8-6.2-3.9-11.7-8.7-16.2-14.3-4.6-5.7-8.2-12.1-10.7-18.9-2.4-6.8-3.8-14-3.9-21.3,0-7.2,1.1-14.5,3.4-21.4,2.1-7.7,4.9-15.2,8.2-22.5,3.3-7.3,7.1-14.3,11.4-21,4.4-6.8,9.2-13.2,14.4-19.2,5.3-6,11-11.6,17.1-16.8C144.1.1,246-19.5,356.5,21.6c94,35.1,113.2,132.5,43.4,208.8-7.9,8.3-16.3,16.1-25.1,23.3-8.9,7.2-18.2,13.9-27.9,19.9-9.7,6.1-19.7,11.5-30.1,16.3-10.4,4.7-21.1,8.8-32,12.2-3.1.4-6.1,1.5-8.8,3.2-2.7,1.7-5,4-6.7,6.6-1.7,2.7-2.9,5.6-3.4,8.8-.4,3.1-.2,6.3.6,9.3,6,53.5,16.5,105.2,50.3,149.5,7.8,11.7,17.7,21.9,29.2,30.1,11.5,8.2,24.4,14.2,38.1,17.7,13.6,3.5,27.8,4.5,41.8,2.9,14.1-1.6,27.7-5.8,40.2-12.3,1.87-.93,3.73-1.83,5.6-2.7,1.87-.8,3.77-1.6,5.7-2.4,1.87-.8,3.77-1.6,5.7-2.4,1.93-.73,3.87-1.43,5.8-2.1,1.8-.7,3.7-1,5.7-1,1.9.1,3.8.5,5.6,1.2,1.8.7,3.4,1.7,4.8,3,1.5,1.3,2.7,2.8,3.5,4.5,1,1.7,1.7,3.5,2.1,5.3.3,1.9.4,3.8.2,5.7-.3,1.9-.8,3.7-1.7,5.4-.8,1.7-1.9,3.3-3.3,4.6-42,52.6-140.2,84.1-201.4,63.6-62.1-21.1-92.2-70.9-111.9-129.4-8.7-27.1-12.4-55-21.9-82.8h0Z"/>
    </g>
  </g>
  <path id="Layer3" data-name="Layer" class="st2" d="M129.64,421.93c6.87,18.24,16.39,33.83,28.55,46.78,12.17,12.96,26.58,22.87,43.23,29.74,16.66,6.87,34.77,10.31,54.34,10.31s36.88-3.57,53.54-10.71c16.66-7.14,31.2-17.18,43.62-30.13,12.43-12.95,22.08-28.42,28.96-46.39,6.87-17.97,10.31-38.06,10.31-60.27V18.7h83.28v555.09h-82.49v-51.54c-18.51,19.56-40.32,34.62-65.44,45.2-25.12,10.57-52.22,15.86-81.3,15.86s-57.24-5.16-82.89-15.47c-25.65-10.3-47.86-24.97-66.63-44.01-18.77-19.03-33.58-41.89-44.42-68.59-10.84-26.7-16.26-56.43-16.26-89.21V18.7h83.29v342.57c0,22.21,3.43,42.43,10.31,60.67Z"/>
</svg>