<?xml version="1.0" encoding="UTF-8"?>
<svg id="Capa_1" xmlns="http://www.w3.org/2000/svg" version="1.1" viewBox="0 0 501 501">
  <!-- Generator: Adobe Illustrator 29.6.1, SVG Export Plug-In . SVG Version: 2.1.1 Build 9)  -->
  <defs>
    <style>
      .st0 {
        fill: #f1f1f1;
      }

      .st1 {
        fill: #a7a7a7;
      }

      .st2 {
        fill: #7c7c7c;
      }

      .st3 {
        fill: #2f2f2f;
      }

      .st4 {
        fill: #eaeaea;
      }

      .st5 {
        fill: #8f8f8f;
      }

      .st6 {
        fill: gray;
      }

      .st7 {
        fill: #e3e3e3;
      }

      .st8 {
        fill: #707070;
      }

      .st9 {
        display: none;
      }

      .st9, .st10 {
        fill: #fbfbfb;
      }

      .st11 {
        fill: #7a7a7a;
      }

      .st12 {
        fill: #efefef;
      }

      .st13 {
        fill: #8e8e8e;
      }

      .st14 {
        fill: #f6f6f6;
      }

      .st15 {
        fill: #ebebeb;
      }

      .st16 {
        fill: #f4f4f4;
      }

      .st17 {
        fill: #dbdbdb;
      }

      .st18 {
        fill: #868686;
      }

      .st19 {
        fill: #1e1e1e;
      }

      .st20 {
        fill: #b4b4b4;
      }

      .st21 {
        fill: #e5e5e5;
      }

      .st22 {
        fill: #ccc;
      }

      .st23 {
        fill: #3a3a3a;
      }

      .st24 {
        fill: #c3c3c3;
      }

      .st25 {
        fill: #373737;
      }

      .st26 {
        fill: #696969;
      }

      .st27 {
        fill: #272727;
      }

      .st28 {
        fill: #929292;
      }

      .st29 {
        fill: #141414;
      }

      .st30 {
        fill: #e7e7e7;
      }

      .st31 {
        fill: #f0f0f0;
      }

      .st32 {
        fill: #242424;
      }

      .st33 {
        fill: #080808;
      }

      .st34 {
        fill: #f8f8f8;
      }

      .st35 {
        fill: #878787;
      }

      .st36 {
        fill: #f7f7f7;
      }

      .st37 {
        fill: #8b8b8b;
      }

      .st38 {
        fill: #fefefe;
      }

      .st39 {
        fill: #a2a2a2;
      }

      .st40 {
        fill: #6b6b6b;
      }

      .st41 {
        fill: #f5f5f5;
      }

      .st42 {
        fill: #838383;
      }

      .st43 {
        fill: #7f7f7f;
      }

      .st44 {
        fill: #202020;
      }

      .st45 {
        fill: #f3f3f3;
      }

      .st46 {
        fill: #fcfcfc;
      }

      .st47 {
        fill: #252525;
      }

      .st48 {
        fill: #494949;
      }

      .st49 {
        fill: #ededed;
      }

      .st50 {
        fill: #eee;
      }

      .st51 {
        fill: #b6b6b6;
      }

      .st52 {
        fill: #0f0f0f;
      }

      .st53 {
        fill: #0e0e0e;
      }

      .st54 {
        fill: #898989;
      }

      .st55 {
        fill: #b2b2b2;
      }

      .st56 {
        fill: #686868;
      }

      .st57 {
        fill: #fdfdfd;
      }
    </style>
  </defs>
  <path class="st33" d="M325,121c1.32,8.27,2.99,9.94,5,5,2.11-3.14,2.6-7.05,7.55-7.95,21.55-3.92,3.42,29.87.92,37.97-.48,1.53-.2,2.95-.47,3.98l-1.02,7.17c-3.04,8.09-2.7,12.37,1.02,12.83,2.6,1.26,15.32,5.68,12.58,10.02-2.14,3.39-18.4,4.83-22.35,6.65-1.39.64-1.69,2.05-2.23,3.32,8.09-.14,30.39-3.17,30.99-13.57.31-5.36-5.37-7.71-9.98-7.43,1.88-7.2,16.29-2.71,22.03-1.53,33.48,6.88,97.96,35.41,101.84,74.16,4.42,44.07-35.46,53.72-66.72,69.53,1.02,7.13-2.98,16.16-11.45,13.63-10.92-3.26,5.73-12.75,6.31-16.34.36-2.21-1.51-9.9-2.01-12.96-.24-1.44.05-2.51-1.51-3.47-6.29,6.67-11.66,14.37-17.99,20.99-3.51,3.67-8.34,10.46-13.8,8.79-.84-.26-3.71-3-3.71-3.3v-20.5c-7.48,7.6-24.54,29.43-37,23.5-4.55-2.16-1.88-12.28-5.48-11.49-7.64,7.96-25.94,29.59-30.01,7-4.12,4.27-12.76,21.31-19.97,12.96s8.06-31.31,4.95-37.95c-.11-.24-3.06-3.64-3.49-4.02l-1.69-.29c-3.2,3.13-3.74,1.58-1.62-4.65l-1.69-4.06c-6.26-.17-.91-13.16,1.88-16.02,17.52-17.9,9.65,12.73,6.05,20.21,7.17,6.95,8.33,8.52,5.98,18.19-3.8,8.13-5.67,16.26-5.63,24.38,9-8.37,15.86-18.79,19.89-30.38,3.48-12.94,21.11-14.91,17.91.49-2.16,10.38-10.54,7.04-7.64-1.93-4.37,1.61-9.89,26.99-7.56,27.18,5.71.46,27.53-24.53,31.87-31.36,13.82-12,15.17,17.08-.99,18.3-1.8,11.98,5,8.74,11.8,3.86,22.68-16.27,30.1-40.05,37.25-66.36,2.3-6.38,12.26-30.46,18.12-33.65,6.68-3.63,6.31,2.34,5.73,7.5-.49,4.37-2.87,13.94-6.66,15.57-1.73,5.42-2.9,3.88-2-1-2.62-.38-2.45-1.09,0-2,.87-4.55.2-5.55-2-3l.21,4.11c-3.15,9.44-7.5,20.37-11.43,29.57-.25.59-.95.98-1.77,1.32.15,1.92.12,4.34-2,5l-.36,2.9c2.55.22,2.67,2.26.36,6.1l.62,3.07c-4.46,2.53-10.41,34.61-7.07,34.36,4.11-.3,31.99-34.47,33.29-42.87,13.75-10.52,10.22,5.26,3.21,11.9-1.11,2.5.77,18.7,1.64,19.11,1.62.77,28.84-12.91,32.59-14.98,16.54-9.13,26.6-19.55,27.54-39.52,1.92-40.59-61.19-65.56-93.37-74.12,15.18,44.53-45.79,83.32-84.41,83.18-19.98-.08-35.69-8.62-52.58-18.15l-1.46-2.98c-2.95,0-4.62-.66-5-2-8.02-4.36-12.93-14.08-15.92-22.73l-13.74,27.1.67,1.63c5.36-.92,6.22.25,1,2-.02,1.84-1.17,2.76-3.46,2.75-16.49,38.76-36.95,91.75-39.51,133.96-.3,4.87-.99,16.69,6.62,12.56l2.35.73c2.82-3.03,5.31-3.37,3,1-7.6,7.75-16.3,7.27-17.91-4.59-2.65-19.51,7-52.82,12.64-72.18,7.07-24.26,16.62-47.54,25.26-71.23l-3.67,1.33c-9.55,13.11-18.7,26.88-29.35,39.14-7.93,9.13-33.78,37.2-37.97,10.53.79-9.15,2.36-18.41,4.7-27.77-3.22-.9-2.54-2.9.3-4.23-1.94-5.45,1.93-13.22,6-17-.45-1.5-1.11-2.83-2-4,14.58-22.56,19.42-58.02,33.83-82.67,8.4-14.37,12.9-11.12,9.17,4.67l-1.45.47c.15-3.62-.36-6.45-1.55-8.47-6.33,16.86-12.91,33.69-19.74,50.5l-1.26.5c.38,1.64-.21,3.88-2,4,.36,2.44.36,4.78,0,7-7.37,13.62-11.48,26.87-14.99,42l53.3-17.19c4.54-5.48,8.67-11.51,12.53-17.47,3.2-4.96,14.57-22.88,15.7-27.3,2.03-7.96-2.21-19.81,2.94-26.06,7.57-9.17,36.78-12.42,48.39-14.11,1.04-5.64,3.43-10.86,6.13-15.86-6.33,1.41-13.08-7.4-18.12-6.47-5.76,1.06-24.33,14.77-29.78,19.06s-11.72,9.66-16.63,14.37c-2.79,2.68-12.48,15.99-15.84,14.97-2.33-.71-5.5-9.43-6.14-11.93-8.64-33.9,24.73-58.49,56.31-49.31,3.56,1.04,6.68,3.24,10.2,4.29-2.06-10.52,6.15-11.1,14-8-2.11-5.02-.17-13.58,5.95-14.57,9.99-1.62,12.89,18.75,17.59,24.54,1.34,1.65,3.3,2.16,4.48,3.52,5.45,6.28,5.31,21.51,7.48,29.51,6.88-9.66,14.4-18.73,23.33-26.49-5.9-7.36-18.74-28.05-5.56-33.76,6.55-2.83,7.94,2.64,9.73,7.25Z"/>
  <path class="st53" d="M123,275c-1.12,3.78.58,3.03.54,5.08-.16,7.71-6.17,18.44-5.54,26.92-.09-.58-1-1.07-.96-3.28.08-4.17,5.81-23.79,4.95-24.71-8.5,2.68-14.39,4.93-19.99,12-.7.02-1.7-.65-3-2l-1.22,2.12c-25.14,15.78-46.82,30.79-66.06,53.8-2.09,2.5-23.79,35.99-7.4,23.21,10.8-8.42,20.91-17.65,30.73-27.41,1.24-.64,2.56-.87,3.95-.72,1.84-2.73,6.78-7.98,5-2-1.85,2.01-3.28,3.97-5,6-2.31,1.62-4.31,3.62-6,6-4.72,5.7-20.98,20.99-27.07,24.43-9.63,5.44-15.43,1.05-12.63-9.64,6.37-24.31,48.11-58,69.4-70.6,6.78-4.02,22.19-10.16,26.31-15.19l2.22-2.11c.67,2.09,1.6,2.79,2.78,2.11-.1-3.15,7.2-7.53,9-4Z"/>
  <path class="st29" d="M264,289c4.29,3.48,2.24,4.74,1.01,9,2.18-.8,2.23-1.57,3.99,0-2.47-.16-2.54,1.54-3.52,2.98-9.21,13.46-21.94,34.12-23.97,2.03-4.62,4.35-11.82,27.22-18.01,26.95-1.93-.08-3.16-1.98-4.49-2.95-1.77-1.89-1.85-3.51-1-6l-1.31-1.8c2-6.11,10.84-25.71,15.93-28.6,14.06-8,16.71,9.54,15.22,19.79.04.7.28,3.38.6,3.48,1.33.41,17.1-18.95,13.87-22.93l1.69-1.95Z"/>
  <path class="st32" d="M204,348c-8.9,14.56-24.17,44.95-35,56,.32-3.35-.52-1.35-3-1,.32-1.45.68-2.89,1.18-4.28s1-2.73,1.76-3.92c9.11-14.29,18.5-28.56,27.93-42.64,1.62-2.42,3.9-4.31,6.13-6.16,1.44-1.07,1.78-.4,1,2Z"/>
  <path class="st19" d="M99,289c.3-.17.11-1.54,1.99-1l1.01,3c-13.06,16.45-23.41,31.1-38,47l-.5-2c-1.27,1.62-2.94,2.72-4.5,4l-1.35-1.95c14.32-16.15,28.11-32.5,41.35-49.05Z"/>
  <path class="st15" d="M338,160c.41,6.3-1.21,12.49-3.04,18.46.01.38,2.24,1.16,3.04,1.54-10.6,2.43,2.84,4.92,5.72,6.75.81.51,2.73.72,1.28,2.24-.72.76-14.89,4.39-15.01,2.5,3.58-10.27,5.29-21.02,8.01-31.49Z"/>
  <path class="st23" d="M129,258l-1.76,1.14c-4.1,7.07-8.51,13.69-13.24,19.86-4.86,2.36-1.54-2.33-5,0,4.87-5.95,13.85-18.58,18-25l2.99-1c.71,2.33-.48,3.53-.99,5Z"/>
  <path class="st25" d="M219,327c-.07-.05.07-1.44-1.49-1-4.19,7.45-9.03,14.67-13.51,22l-1-2,.03-3.91,11.64-19.24,3.33-1.85c.29,2.3,3.23,3.96,1,6Z"/>
  <path class="st48" d="M159,202c-4.8,10.19-9.75,18.31-15,28l-.02-1.35c-4.36-1.81-.91-3.54.02-5.65.11,1.18,1.11.52,3-2,1.76-6.4,4.32-12.62,7.67-18.65l3.33-2.35c1.22-1.15,1.55-.48,1,2Z"/>
  <path class="st56" d="M167,168c.45-.56.16-1.48,1.99-.99.71.75-1.23,7.84,1.01,8.99-1.91,8.12-7.38,18.32-11,26l-1-2-1.18-2.2c5.19-9.37,8.13-19.38,10.18-29.8Z"/>
  <path class="st6" d="M458.91,357.11c.2.3-.17,5.6-.39,5.89-1.55,1.99-1.82-.7-3.02-.66-1.04.04-2.77,3.55-3.53-.85-1.19-6.87,5.68-6.34,6.95-4.39Z"/>
  <path class="st18" d="M430.66,358.4c.6.46-.02,1.78.83,1.6,3.66-6.14,5.33-2.98,4.5,3-3.04.09-4.32-.95-6.5-2-.41-.2-2.46,6.64-2.48-3.99,1.51-.25,2.55.55,3.66,1.39Z"/>
  <path class="st13" d="M253.85,357.16c2.54,3.98-2.2,9.83-6.59,5.59-4.07-3.93,4.41-9.01,6.59-5.59Z"/>
  <path class="st35" d="M265.75,362.75c-2.78,2.78-8.71.24-7.19-3.79,2.4-6.38,12.11-1.13,7.19,3.79Z"/>
  <path class="st35" d="M277.76,357.25c4.74,4.61-6.41,11.02-6.84,3.26-.28-5,3.97-6.05,6.84-3.26Z"/>
  <path class="st28" d="M364,357.99l-2.99,1c4.59-.4,4.34,2.04-.02,2.51l3.01,2.49c-9.75,2.24-7.06-12.74,0-6Z"/>
  <path class="st18" d="M443.74,356.14c5.24-.73,5.81,7.44.71,7.9s-6.49-7.1-.71-7.9Z"/>
  <path class="st43" d="M219.99,356.01l-2.01,2.49c5.24,1.96.02,2.52,0,3l3.01,1c-6.96,5.97-9.39-8.04-1-6.49Z"/>
  <path class="st8" d="M409.16,362.82c-.63-1,.11-4.34-1.17-5.82,15.23-3.18,4.75,11.49,1.17,5.82Z"/>
  <path class="st11" d="M311.99,356.01l-2.01,2.49c5.21,1.96.08,2.5,0,3l2.01,2.49c-7.11,1.58-7.22-9.51,0-7.99Z"/>
  <path class="st40" d="M399.81,357.23c.54.32.71,2.83,2.18,2.77l2.01-2.99v5.99c-1.95.31-3.33-.53-4.5-1.99l-2.49,1.99c0-2.85-1.04-8.02,2.81-5.77Z"/>
  <path class="st54" d="M468.99,356.01l-3.01,2.49c7.74,1.93.03,2.57,0,3l3.01,2.49c-7.11,1.58-7.22-9.51,0-7.99Z"/>
  <path class="st18" d="M391.99,363c-1.49.13-3-1.2-4.39-1.09-.91.07-.04,3.29-2.59,2.09.37-8.09,6.02-10.33,6.99-1Z"/>
  <path class="st42" d="M373.99,356.01l-2.99,2.98,3.97,2.51c-1.83,2.48-4.56,3.96-5.98.51l2.99-1c-5.78-1.34-2.66-6.14,2-5.01Z"/>
  <path class="st5" d="M318.98,356l1.03,3.99,3.98-2.99c-.27,2.65-1.35,5.31-3.5,6.97-1.11.01-6.26-8.66-1.52-7.98Z"/>
  <path class="st6" d="M231.99,363c-2.6-.92-4.38-.87-6.99,0,1.09-7.85,6.25-8.39,6.99,0Z"/>
  <path class="st2" d="M348.98,357.02c.24.19-.67,2.81,2.52,2,.54-.14.05-3.01,2.49-2.01-.39,9.5-1.49,4.09-4.49,3.95-.8-.04.15,3.13-2.5,2.03-.06-1.64-.7-8.09,1.98-5.97Z"/>
  <path class="st2" d="M210,357.99l-2.99,1,3.97,2.51c-1.83,2.48-4.56,3.96-5.98.51l2.99-1c-6.26-.92-1.45-8.54,2.01-3.02Z"/>
  <path class="st35" d="M342,357.99c-5.96-1.42-5.96,5.43,0,4.02-.59,3.05-5.39,1.9-6.56,0-2.29-3.74,4.36-8.78,6.56-4.01Z"/>
  <path class="st37" d="M302.99,357.01l-5,.99c.1,1.13-.15,2.39,0,3.49.21,1.52,5.05-.82,5,1.49-10.35,4.26-9.1-9.81,0-5.97Z"/>
  <path class="st54" d="M241.99,356.01l-3.01,2.49,3.01,2.49c-3.47-1.02-2.09,2.49-4.99,2-.3-4.54-.63-7.83,4.99-6.99Z"/>
  <path class="st27" d="M325,121c1.03,2.66,2.35,4.95,2.01,8,1.11-.4,2.33-2.02,2.99-3l-3.02,4.52-1.98-9.52Z"/>
  <path class="st26" d="M331,356.99l-1.48,6c-2.52-2.74-2.75-7.22,1.48-6Z"/>
  <path class="st19" d="M59,344c-1.85,2.18-3.4,4.58-6,6,1.32-1.59,2.09-6.03,6-6Z"/>
  <path class="st38" d="M233,247c17.28,8.65,28.53,17.45,49.52,18.98,33.85,2.47,84.59-26.69,89.4-62.57,1.09-8.16-.59-14.19-3.91-21.41,27.68,6.71,57.69,19.27,79.46,38.03,17.13,14.75,24.36,33.6,15.72,55.66-9.11,23.26-38.19,29.14-57.88,40.13l-2.3.19c-.75-6.58-3.66-15.78-1.79-22.29.26-.92,11.82-14.82,3.46-12.56-4.42,1.19-6.69,10.62-8.83,14.19-4.34,7.22-19.74,24.37-26.2,30.3-.74.69-3.84,2.9-4.63,2.35-3.35-14.55,1.12-27.56,7.99-40,.32-2.97.97-4.95,1.94-5.94,6.32-12.21,12.01-24.56,17.06-37.06,2.05-7.16,5.6-14.31,4.99-22-3.66-4.07-15.86,21.58-16.76,23.73-8.08,19.18-10.99,43.27-23.72,59.28-5.18,6.52-21.73,24.93-30.87,21.86-2.42-.81-2.03-11.4-1.6-11.84.22-.22,3.64-.18,5.92-1.58,3.8-2.35,7.89-9.49,5.11-13.78-4.3-6.65-11.16,6.59-13.07,8.83-7.86,9.22-17.03,19.23-27.98,24.5-4.56-6.03,2.53-28.36,7.41-32.08,6.56-5,.93,6.49,2.58,8.08.82-.13,2.71.21,2.98,0,.36-.3,1.96-7.73,1.61-9.02-.21-.79-1.37-2.59-2.02-3.06-9.36-6.69-14.92,15.39-17.73,20.41-1.58,2.81-6.23,8.84-8.43,11.57-1.29,1.6-7.18,9.63-9.4,8.08-5.08-10.29,9.17-28.29,5.46-36.98-.97-2.27-6.06-4.42-6.51-7.57-.67-4.73,7.57-16.93,5.03-23.44-6.95-.31-11.7,9.87-11.92,15.64-.07,1.72.87,2.68.93,3.36.15,1.75,1.03,3.68.8,5.27-.5,3.48-12.92,21.72-16.3,21.77-4.17.06-2.17-12.07-2.52-15.53-.62-6.2-3.5-12.19-10.97-8.99-7.14,3.06-13.19,22.5-17.01,29.48-4.34,7.92-10.18,17-15,25-11.64,19.32-24.79,38.03-37,57-3.06,2.69-7.8,3.42-9.74-.76-4.17-8.99,2.54-38.84,5.03-49.45,7.87-33.48,20.59-66.4,33.63-98.12.95-1.13,3.55-1.27,5.07-1.68,9.82-4.39,22.1-7.79,33-6Z"/>
  <path class="st38" d="M241,248c-7.03-4.88,4.05-6.98,8.54-4.69,14.43,9.96,31.18,12.52,48.46,11.69l.1-1.2,11.08-2.51c16.74-6.98-3.24-13.52-11.68-12.85l-26.51.56c-.2.47-.41.85-.69.9-4.23.77-19.8,3.14-22.48,2.23-.75-.25-2.5-1.17-2.92-1.71-.9-1.14.34-.71.2.9-.16,1.89-9.83,3.76-12.1,1.67-14.38-12.23-18.78-29.59-17.99-48,7.6,2.38,15.19,4.74,22.98,6.51,32.41,7.34,72.93,8.84,105.22.19,10.02-2.69,17.93-7.25,18.29-18.7,10.2,8.47,5.46,25.16.38,35.37-9.69,19.49-36.15,36.07-56.87,41.13-24.6,6.01-42.28-1.02-64.01-11.51Z"/>
  <path class="st57" d="M288,202.99c8.23-23.69,23.35-44.14,43.5-58.97,5.87.03-.13,29.66-1.2,33.78-1.28,4.96-6.92,23.3-11.82,24.18-2.71.49-8.86.89-11.94,1.06-6.13.35-12.41-.33-18.54-.05Z"/>
  <path class="st57" d="M178.99,259c.34,1.69-.84,2.64-1.6,3.89-6.5,10.71-31.91,41.87-42.05,47.95-13.18,7.9-14.54-1.71-13.24-13.24.3-2.68,4.74-19.83,5.9-21.1,1.58-1.73,20.63-8.24,24.45-9.55,8.7-2.98,17.69-5.46,26.53-7.96Z"/>
  <path class="st57" d="M275.21,202.78c-.35-.21-4.58-5.69-5.04-6.45-9.39-15.26-5.15-34.54,5.98-47.69,4.68-5.54,10.75-4.03,13.18,2.54,1.57,4.25,4.79,25.04,4.38,29.19-.13,1.32-6.68,14.1-7.9,16.93-1.08,2.5-.13,5.09-3.29,5.71-1.25.24-6.44.28-7.31-.23Z"/>
  <path class="st36" d="M188.01,190c-16.56-37.41,28.01-68.08,58.97-45.5,0,.71-7.25,4.51-8.51,4.48-.84-.02-6.28-4.11-8.92-5.03-17.36-6.06-41.75,7.34-39.29,27.29,1.05,8.54,9.65,14.18-2.25,18.75Z"/>
  <path class="st34" d="M261,174c-.13,1.97.69,5.25-.98,6.53-1,.76-14.98,3.56-18.28,4.72-2.26.79-9.68,3.56-11.13,4.68-.87.68-.92,1.84-.6,2.57,1.3,2.92,31.38,5.14,36.34,5.66l2.65,3.84c-2.03,1.5-29.68-4.16-34.21-5.28-15.56-3.84-31.66-7.51-6-16.42,4.1-1.42,30.51-8.01,32.21-6.29Z"/>
  <path class="st10" d="M228,245c-2.46,1.41-5.69,2.22-9.69,2.42-6.51,1.92-12.95,3.11-19.31,3.58-1.25-.22-3.71.85-2.99-1.48l16.49-32.51c1.97,5.3,3.36,10.76,6.3,15.69,2.69,4.52,7.14,7.61,9.19,12.31Z"/>
  <path class="st52" d="M233,243l11-1.49c-5.1-4.48-10.05-9.45-13.82-15.18-.75-1.14-4.56-7.56-4.76-8.26-.82-2.87,2.12-4.62,3.84-1.79,3.94,6.48,12.53,21.61,19.81,24.2,2.78.99,17.02-1.37,21.94-1.48,3.51-.36,7.03-.4,10.54-.12l.46,1.12-2.79,2.13c-3.09.21-19.61,1.38-19.95,2.32-.71,1.97,26.97,8.54,30.37,7.39l2.36,2.16c4.45-1.11,6.45-.77,6,1-15.89,2.82-26.44,1.16-41.21-5.29-6.08-2.65-9.77-8.04-17.27-4.7l1.48,2.99c-1.2-.58-7.11-4.24-8-5Z"/>
  <path class="st16" d="M158,200c-3.21,6.94-7.26,14.3-11,21-1.25,1.14-1.58.47-1-2,5.33-13.67,12.29-40.23,21-51,2.57,9.65-4.83,22.99-9,32Z"/>
  <path class="st36" d="M331,133c.88-4.6,3.26-12.33,9.35-11.73,8.51.83-.62,19.94-1.37,24.73-2.35.77-2.01-1.27-2.99-2l-1.87-2.5c-5.03-.15-6.08-2.99-3.13-8.5Z"/>
  <path class="st41" d="M272.86,145.16c.58,11.03-14,2.89-17.83-1.68-5.58-6.66-5.32-13.24,4.65-8.64,5.4,2.49,8.03,7.76,13.18,10.33Z"/>
  <path class="st45" d="M271.71,121.31c1.77,1.56,9.97,19.76,9.3,20.68-3.64,2.45-9.06-2.2-11.55-4.94-6.64-7.32-4.07-21.31,2.25-15.74Z"/>
  <path class="st0" d="M317.68,117.15c3.52-.29,5.58,10.97,6.05,13.62.35,1.98,2.59,14.33-.23,14.21-1.66-.07-17.52-26.85-5.82-27.83Z"/>
  <path class="st47" d="M390,244c.12,1.53-.65,3.36.99,2.99l1.01-1.99c-5.45,19.03-9.74,26.25-19,43,2.53-4.39-.98-3.49-1.13-5.5s.89-2.59,1.13-3.5l.87.79c-.74,3.32-.13-3.38,2.13-2.79,3.51-10.71,7.43-21.43,11.76-32.13l2.24-.87Z"/>
  <path class="st14" d="M264,193.99c-.81.71-18.73-1.59-21.37-2.12-1.1-.22-3.74-.28-3.62-1.86,4.3-.78,17.89-6.94,21.37-5.93,2.07.6,2.94,7.69,3.62,9.91Z"/>
  <path class="st15" d="M390,242c-.05.66.11,1.42,0,2-1.66,8.59-9.81,24.72-14,33-1.34.86-1.67-.14-1-3,4.05-12.04,7.18-23.59,13-35,2.39-3.61,3.05-2.61,2,3Z"/>
  <path class="st4" d="M129,258c-1.93,5.57-4.33,11.36-6,17-3.38.5-6.07,2.58-9,4-3.1.33-1.87-.62-.8-2.3,4.48-7.03,10.28-13.31,14.34-20.66l1.46,1.96Z"/>
  <path class="st30" d="M223,146.01l-4.2,8.29-4.29,5.69c-1.51-1.53-6.53-10.83-5.51-11.99,4.77-.81,8.98-2.84,14-2Z"/>
  <path class="st21" d="M208,167.01c1.71,1.74-.65,1.68-1.42,2.08-2.01,1.03-8.33,3.13-10.51,3.52-3.14.55-2.82-9-.49-9.55.63-.15,11.97,3.49,12.43,3.96Z"/>
  <path class="st44" d="M228,245c.89.09,3.92,1.46,5,2-10.83.69-22.51,3.19-33,6l1.99-1.01v-.98c-.96-.13-2.08.15-2.99-.01,7.82-1.54,21.47-6.8,29-6Z"/>
  <path class="st17" d="M221.01,160c.83-3.55,3.58-13.18,7.23-12.83,12.05,1.14-4.15,10.19-7.23,12.83Z"/>
  <path class="st12" d="M209,160.99c-1.94.27-11.89-.76-11.98-2.48,1.62-3.49,5.04-5.27,7.96-7.5l4.01,9.99Z"/>
  <path class="st22" d="M206,173.01c-.85,1.31-6.95,7.97-7.5,7.97-1.36,0-3.47-5.01-2.51-5.98.36-.36,8.22-.65,10.01-1.99Z"/>
  <path class="st24" d="M331.99,304c1.26,1.38-3.11,8.65-5.99,7.99-.66-.7,3.18-8.9,5.99-7.99Z"/>
  <path class="st51" d="M268.99,286c-3.43,3.44-1.3-9.11,2-9,.22,1.52-1.41,8.4-2,9Z"/>
  <path class="st1" d="M398.75,329.75c-.93.96-5.85,2.4-4.74-.24l5.98-4.51c.45.59-.51,4-1.24,4.75Z"/>
  <path class="st27" d="M331,133c-.2,1.07-1.26,6.75-1.01,6.99.37.34,6.4-.55,6.01,4.01-.97-.72-2.27-2.08-3.06-2.45-1.05-.49-2.58.27-2.97-.03-2.03-1.51-.8-6.75,1.04-8.52Z"/>
  <path class="st20" d="M390,242c.09-1.32-.05-2.68-.01-4l-1.99,1c1.01-1.99,1.49-4.96,3.99-6l-1.99,9Z"/>
  <path class="st39" d="M188,252.99c-.39-.31,5.23-7.3,5.99-7.99.62,2.31-3.23,10.14-5.99,7.99Z"/>
  <path class="st55" d="M376,277c-1.64,3.24-3.07,8.26-3,2,.7-2.69,1.51-3.56,2-5l1,3Z"/>
  <path class="st55" d="M147,221c-.77,1.38-1.15,2.98-2.5,4l-.5-2c.62-1.4,1.68-3.18,2-4l1,2Z"/>
  <path class="st46" d="M59,340c-10.22,8.35-18.95,19.07-29.53,26.97-19.05,14.24-14.11-.84-6.7-12.7,18.45-29.53,46.9-48.16,76.23-65.27,2.36.81-.3,2.7-.95,3.55-9.37,12.4-19.17,24.88-29.54,36.46-3.12,3.49-7.99,6.51-9.51,10.99Z"/>
  <path class="st31" d="M240.99,294.01c.37.37-.14,3.11-.45,4.04-1.01,3.02-7.63,13.81-9.74,17.26-.69,1.13-6.44,11.26-7.8,9.69.52-7.87,4.02-16.63,8.19-23.3,1.15-1.84,6.94-10.55,9.8-7.69Z"/>
  <rect class="st49" x="249" y="358" width="2.99" height="3.99"/>
  <path class="st12" d="M261,361.99c-.43-.43-.96-5.27,2.48-3.98,3.85,1.43-.84,5.63-2.48,3.98Z"/>
  <path class="st7" d="M273,361.99c-.43-.43-.96-5.27,2.48-3.98,3.85,1.43-.84,5.63-2.48,3.98Z"/>
  <path class="st50" d="M445.99,358.01c.43.43.96,5.27-2.48,3.98-3.85-1.43.84-5.63,2.48-3.98Z"/>
  <path class="st31" d="M413.99,358.01c.23,1.84.06,2.93-1.51,3.98h-1.48s0-3.99,0-3.99h2.99Z"/>
  <path class="st3" d="M399,272.99c-1.84-1.78,12.43-15.94,13.49-15.97.88-.03,1.72,1.94,1.35,3.31s-13.08,14.36-14.84,12.66Z"/>
  <path class="st47" d="M271,239l26.55-2.04c5.12.6,17.67,1.68,19.31,7.76,2.05,7.62-13.82,9.39-18.85,10.28-1.11-1.75-4.11-.88-6-1l.5-2.2c18.96-3.08,31.34-8.59,1.72-9.98l-10.68.13-1.54-1.94c-2.59-1.77-7.61-1.08-11-1Z"/>
  <path class="st9" d="M282,240c5.85-.23,28.78-1.15,31.51,3.99.48.9.77,2.42.56,3.39-.56,2.58-18.92,5.64-22.07,6.62-13.38-.85-26.82-2.54-38-10.5,8.53-2.21,18.99-3.15,28-3.5Z"/>
</svg>